# xmcd CD database file generated by OrangeCD 6.4
#
# Track frame offsets:
#	150
#	90412
#	214904
#	259190
#	307133
#
# Disc length: 4420 seconds
#
# Revision: 0
# Processed by: cddbd v1.5.2PL0 Copyright (c) Steve Scherf et al.
# Submitted via: OrangeCD 6.4
#
DISCID=42114205
DTITLE=Jimi Hendrix - The Late Studio Sessions 1969-1970
DYEAR=2010
DGENRE=Blues Rock
TTITLE0=Ezy Rider/MLK Jam
TTITLE1=Villanova Junction Jam
TTITLE2=Burning Desire
TTITLE3=Country Blues/Astro Man
TTITLE4=Once I Had A Woman
EXTD=
EXTT0=
EXTT1=
EXTT2=
EXTT3=
EXTT4=
PLAYORDER=
